<svg width="18" height="20" viewBox="0 0 18 20" fill="none" xmlns="http://www.w3.org/2000/svg">
<path d="M13.5 0.046875C13.6865 0.046875 13.8652 0.121068 13.9971 0.25293C14.1289 0.384791 14.2031 0.563519 14.2031 0.75V1.54688H16.5C16.8854 1.54688 17.2548 1.70014 17.5273 1.97266C17.7999 2.24517 17.9531 2.61461 17.9531 3V18C17.9531 18.3854 17.7999 18.7548 17.5273 19.0273C17.2548 19.2999 16.8854 19.4531 16.5 19.4531H1.5C1.11461 19.4531 0.74517 19.2999 0.472656 19.0273C0.200143 18.7548 0.046875 18.3854 0.046875 18V3C0.046875 2.61461 0.200142 2.24517 0.472656 1.97266C0.74517 1.70014 1.11461 1.54688 1.5 1.54688H3.79688V0.75C3.79688 0.56352 3.87107 0.384791 4.00293 0.25293C4.13479 0.121068 4.31352 0.046875 4.5 0.046875C4.68648 0.046875 4.86521 0.121068 4.99707 0.25293C5.12893 0.384791 5.20312 0.56352 5.20312 0.75V1.54688H12.7969V0.75C12.7969 0.563519 12.8711 0.384791 13.0029 0.25293C13.1348 0.121068 13.3135 0.046875 13.5 0.046875ZM1.45312 18.0469H16.5469V7.45312H1.45312V18.0469ZM4.875 13.5469C5.16094 13.5469 5.43551 13.6601 5.6377 13.8623C5.83988 14.0645 5.95312 14.3391 5.95312 14.625C5.95312 14.8381 5.88984 15.0464 5.77148 15.2236C5.65302 15.4009 5.48411 15.5395 5.28711 15.6211C5.09034 15.7025 4.87391 15.7241 4.66504 15.6826C4.4559 15.641 4.26308 15.5385 4.1123 15.3877C3.96153 15.2369 3.85898 15.0441 3.81738 14.835C3.77592 14.6261 3.7975 14.4097 3.87891 14.2129C3.96051 14.0159 4.09907 13.847 4.27637 13.7285C4.45361 13.6102 4.66187 13.5469 4.875 13.5469ZM9 13.5469C9.28594 13.5469 9.56051 13.6601 9.7627 13.8623C9.96488 14.0645 10.0781 14.3391 10.0781 14.625C10.0781 14.8381 10.0148 15.0464 9.89648 15.2236C9.77802 15.4009 9.60911 15.5395 9.41211 15.6211C9.21534 15.7025 8.99891 15.7241 8.79004 15.6826C8.5809 15.641 8.38808 15.5385 8.2373 15.3877C8.08653 15.2369 7.98398 15.0441 7.94238 14.835C7.90092 14.6261 7.9225 14.4097 8.00391 14.2129C8.08551 14.0159 8.22407 13.847 8.40137 13.7285C8.57861 13.6102 8.78687 13.5469 9 13.5469ZM13.125 13.5469C13.4109 13.5469 13.6855 13.6601 13.8877 13.8623C14.0899 14.0645 14.2031 14.3391 14.2031 14.625C14.2031 14.8381 14.1398 15.0464 14.0215 15.2236C13.903 15.4009 13.7341 15.5395 13.5371 15.6211C13.3403 15.7025 13.1239 15.7241 12.915 15.6826C12.7059 15.641 12.5131 15.5385 12.3623 15.3877C12.2115 15.2369 12.109 15.0441 12.0674 14.835C12.0259 14.6261 12.0475 14.4097 12.1289 14.2129C12.2105 14.0159 12.3491 13.847 12.5264 13.7285C12.7036 13.6102 12.9119 13.5469 13.125 13.5469ZM9 9.79688C9.28594 9.79688 9.56051 9.91012 9.7627 10.1123C9.96488 10.3145 10.0781 10.5891 10.0781 10.875C10.0781 11.0881 10.0148 11.2964 9.89648 11.4736C9.77802 11.6509 9.60911 11.7895 9.41211 11.8711C9.21534 11.9525 8.99891 11.9741 8.79004 11.9326C8.5809 11.891 8.38808 11.7885 8.2373 11.6377C8.08653 11.4869 7.98398 11.2941 7.94238 11.085C7.90092 10.8761 7.9225 10.6597 8.00391 10.4629C8.08551 10.2659 8.22407 10.097 8.40137 9.97852C8.57861 9.86016 8.78687 9.79688 9 9.79688ZM13.125 9.79688C13.4109 9.79688 13.6855 9.91012 13.8877 10.1123C14.0899 10.3145 14.2031 10.5891 14.2031 10.875C14.2031 11.0881 14.1398 11.2964 14.0215 11.4736C13.903 11.6509 13.7341 11.7895 13.5371 11.8711C13.3403 11.9525 13.1239 11.9741 12.915 11.9326C12.7059 11.891 12.5131 11.7885 12.3623 11.6377C12.2115 11.4869 12.109 11.2941 12.0674 11.085C12.0259 10.8761 12.0475 10.6597 12.1289 10.4629C12.2105 10.2659 12.3491 10.097 12.5264 9.97852C12.7036 9.86016 12.9119 9.79688 13.125 9.79688ZM1.45312 6.04688H16.5469V2.95312H14.2031V3.75C14.2031 3.93648 14.1289 4.11521 13.9971 4.24707C13.8652 4.37893 13.6865 4.45312 13.5 4.45312C13.3135 4.45312 13.1348 4.37893 13.0029 4.24707C12.8711 4.11521 12.7969 3.93648 12.7969 3.75V2.95312H5.20312V3.75C5.20312 3.93648 5.12893 4.11521 4.99707 4.24707C4.86521 4.37893 4.68648 4.45312 4.5 4.45312C4.31352 4.45312 4.13479 4.37893 4.00293 4.24707C3.87107 4.11521 3.79688 3.93648 3.79688 3.75V2.95312H1.45312V6.04688Z" fill="white" stroke="white" stroke-width="0.09375"/>
</svg>
