<svg width="19" height="19" viewBox="0 0 19 19" fill="none" xmlns="http://www.w3.org/2000/svg">
<path d="M17.2091 8.46094L4.74032 1.34411C4.53001 1.22571 4.2886 1.17421 4.04828 1.19647C3.80795 1.21873 3.58011 1.31369 3.39511 1.4687C3.21012 1.62371 3.07675 1.83141 3.01277 2.06413C2.94879 2.29685 2.95724 2.54354 3.037 2.77134L5.31032 9.50001L3.037 16.2294C2.97374 16.4085 2.95434 16.6001 2.98045 16.7882C3.00655 16.9763 3.0774 17.1555 3.18703 17.3105C3.29667 17.4656 3.4419 17.5921 3.61054 17.6795C3.77918 17.7668 3.96631 17.8124 4.15622 17.8125C4.36255 17.8121 4.56528 17.7584 4.74478 17.6566L17.2076 10.5279C17.3914 10.425 17.5445 10.2749 17.6512 10.0932C17.7579 9.91155 17.8144 9.70474 17.8147 9.49404C17.8151 9.28334 17.7594 9.07633 17.6534 8.89426C17.5473 8.71219 17.3948 8.56161 17.2113 8.45798L17.2091 8.46094ZM4.15622 16.625C4.15654 16.622 4.15654 16.6191 4.15622 16.6161L6.36349 10.0938H10.6875C10.8449 10.0938 10.996 10.0312 11.1073 9.91985C11.2187 9.8085 11.2812 9.65748 11.2812 9.50001C11.2812 9.34254 11.2187 9.19151 11.1073 9.08016C10.996 8.96881 10.8449 8.90626 10.6875 8.90626H6.36349L4.16068 2.38688C4.15995 2.38268 4.15844 2.37865 4.15622 2.37501L16.625 9.48739L4.15622 16.625Z" fill="#343330"/>
</svg>
