<svg width="12" height="12" viewBox="0 0 12 12" fill="none" xmlns="http://www.w3.org/2000/svg">
<path d="M10.75 0.0478516C10.9368 0.0478604 11.1159 0.122785 11.248 0.254883C11.38 0.386969 11.4541 0.566201 11.4541 0.75293C11.454 0.939618 11.3801 1.11896 11.248 1.25098L6.74707 5.75195L6.78027 5.78516L11.248 10.2549C11.38 10.387 11.4541 10.5662 11.4541 10.7529C11.454 10.9396 11.3801 11.119 11.248 11.251C11.116 11.383 10.9367 11.457 10.75 11.457C10.5633 11.457 10.384 11.383 10.252 11.251L5.25195 6.25098C5.18645 6.1857 5.13412 6.10785 5.09863 6.02246C5.06319 5.93711 5.04497 5.84534 5.04492 5.75293C5.04492 5.66055 5.06327 5.56873 5.09863 5.4834C5.1341 5.39798 5.18646 5.32018 5.25195 5.25488L10.252 0.254883C10.3841 0.122777 10.5632 0.0478516 10.75 0.0478516ZM5.75195 0.046875C5.93869 0.0469047 6.11793 0.120917 6.25 0.25293C6.38203 0.384959 6.45597 0.564268 6.45605 0.750977C6.45605 0.937699 6.38197 1.11694 6.25 1.24902L1.74707 5.75195L1.78027 5.78516L6.25 10.2529C6.31532 10.3183 6.36695 10.3961 6.40234 10.4814C6.4377 10.5668 6.45601 10.6586 6.45605 10.751C6.45605 10.8434 6.43769 10.9351 6.40234 11.0205C6.36698 11.1059 6.31531 11.1837 6.25 11.249C6.18459 11.3144 6.10695 11.3669 6.02148 11.4023C5.93606 11.4377 5.84441 11.456 5.75195 11.4561C5.65952 11.4561 5.56783 11.4377 5.48242 11.4023C5.39696 11.3669 5.31932 11.3144 5.25391 11.249L0.253906 6.24902C0.188379 6.18371 0.136065 6.10595 0.100586 6.02051C0.0652025 5.93515 0.046875 5.84338 0.046875 5.75098C0.0469176 5.65855 0.0651392 5.56681 0.100586 5.48145C0.136072 5.39605 0.1884 5.31821 0.253906 5.25293L5.25391 0.25293C5.38599 0.120961 5.56523 0.046875 5.75195 0.046875Z" fill="#D0D0D0" stroke="#D0D0D0" stroke-width="0.09375"/>
</svg>
