<svg width="19" height="19" viewBox="0 0 19 19" fill="none" xmlns="http://www.w3.org/2000/svg">
<path d="M18.1836 8.21156C18.0734 8.05878 17.9284 7.9344 17.7606 7.84871C17.5929 7.76302 17.4071 7.71847 17.2188 7.71875H16.0312V6.53125C16.0312 6.21631 15.9061 5.91426 15.6834 5.69156C15.4607 5.46886 15.1587 5.34375 14.8438 5.34375H9.69816L7.64008 3.8C7.43418 3.6465 7.1844 3.56324 6.92758 3.5625H2.96875C2.65381 3.5625 2.35176 3.68761 2.12906 3.91031C1.90636 4.13301 1.78125 4.43506 1.78125 4.75V15.4375C1.78125 15.595 1.84381 15.746 1.95516 15.8573C2.06651 15.9687 2.21753 16.0312 2.375 16.0312H15.6676C15.7922 16.0313 15.9137 15.9921 16.0148 15.9192C16.1159 15.8463 16.1915 15.7435 16.2309 15.6253L18.3454 9.2818C18.4049 9.1033 18.4212 8.91326 18.3931 8.72724C18.3649 8.54122 18.2932 8.3645 18.1836 8.21156ZM6.92758 4.75L9.14375 6.4125C9.24653 6.48958 9.37153 6.53125 9.5 6.53125H14.8438V7.71875H5.17824C4.929 7.71873 4.68606 7.79714 4.48386 7.94287C4.28165 8.08859 4.13043 8.29425 4.0516 8.5307L2.96875 11.7785V4.75H6.92758ZM15.2401 14.8438H3.19883L5.17824 8.90625H17.2188L15.2401 14.8438Z" fill="#343330"/>
</svg>
