<svg width="19" height="19" viewBox="0 0 19 19" fill="none" xmlns="http://www.w3.org/2000/svg">
<path d="M16.625 6.53117H13.018L13.6466 3.0748C13.6719 2.92112 13.6357 2.76368 13.546 2.63639C13.4562 2.50911 13.3201 2.42218 13.1669 2.39433C13.0136 2.36649 12.8556 2.39997 12.7268 2.48755C12.598 2.57513 12.5088 2.7098 12.4784 2.86253L11.8104 6.53117H8.26797L8.8966 3.0748C8.92186 2.92112 8.88572 2.76368 8.79598 2.63639C8.70624 2.50911 8.57009 2.42218 8.41686 2.39433C8.26363 2.36649 8.1056 2.39997 7.97682 2.48755C7.84804 2.57513 7.75882 2.7098 7.7284 2.86253L7.06117 6.53117H3.5625C3.40503 6.53117 3.25401 6.59372 3.14266 6.70507C3.03131 6.81642 2.96875 6.96744 2.96875 7.12492C2.96875 7.28239 3.03131 7.43341 3.14266 7.54476C3.25401 7.65611 3.40503 7.71867 3.5625 7.71867H6.8452L6.19727 11.2812H2.375C2.21753 11.2812 2.06651 11.3437 1.95516 11.4551C1.84381 11.5664 1.78125 11.7174 1.78125 11.8749C1.78125 12.0324 1.84381 12.1834 1.95516 12.2948C2.06651 12.4061 2.21753 12.4687 2.375 12.4687H5.98203L5.3534 15.925C5.32527 16.0799 5.35983 16.2397 5.44946 16.3691C5.53909 16.4986 5.67646 16.5871 5.83137 16.6153C5.86637 16.6217 5.9019 16.625 5.9375 16.6249C6.07642 16.6247 6.21088 16.5758 6.31747 16.4867C6.42405 16.3976 6.49603 16.274 6.52086 16.1373L7.18883 12.4687H10.732L10.1034 15.925C10.0753 16.0799 10.1098 16.2397 10.1995 16.3691C10.2891 16.4986 10.4265 16.5871 10.5814 16.6153C10.6164 16.6217 10.6519 16.625 10.6875 16.6249C10.8264 16.6247 10.9609 16.5758 11.0675 16.4867C11.1741 16.3976 11.246 16.274 11.2709 16.1373L11.9388 12.4687H15.4375C15.595 12.4687 15.746 12.4061 15.8573 12.2948C15.9687 12.1834 16.0312 12.0324 16.0312 11.8749C16.0312 11.7174 15.9687 11.5664 15.8573 11.4551C15.746 11.3437 15.595 11.2812 15.4375 11.2812H12.1548L12.8027 7.71867H16.625C16.7825 7.71867 16.9335 7.65611 17.0448 7.54476C17.1562 7.43341 17.2188 7.28239 17.2188 7.12492C17.2188 6.96744 17.1562 6.81642 17.0448 6.70507C16.9335 6.59372 16.7825 6.53117 16.625 6.53117ZM10.9473 11.2812H7.4048L8.05273 7.71867H11.5952L10.9473 11.2812Z" fill="#343330"/>
</svg>
