<svg width="20" height="20" viewBox="0 0 20 20" fill="none" xmlns="http://www.w3.org/2000/svg">
<path d="M14.825 18.9581H5.17502C2.89169 18.9581 1.04169 17.0998 1.04169 14.8165V8.64148C1.04169 7.50815 1.74169 6.08315 2.64169 5.38315L7.13335 1.88315C8.48335 0.833149 10.6417 0.783149 12.0417 1.76648L17.1917 5.37482C18.1834 6.06648 18.9584 7.54982 18.9584 8.75815V14.8248C18.9584 17.0998 17.1084 18.9581 14.825 18.9581ZM7.90002 2.86648L3.40835 6.36648C2.81669 6.83315 2.29169 7.89148 2.29169 8.64148V14.8165C2.29169 16.4081 3.58335 17.7081 5.17502 17.7081H14.825C16.4167 17.7081 17.7084 16.4165 17.7084 14.8248V8.75815C17.7084 7.95815 17.1334 6.84982 16.475 6.39982L11.325 2.79148C10.375 2.12482 8.80835 2.15815 7.90002 2.86648Z" fill="white"/>
<path d="M10 15.625C9.65833 15.625 9.375 15.3417 9.375 15V12.5C9.375 12.1583 9.65833 11.875 10 11.875C10.3417 11.875 10.625 12.1583 10.625 12.5V15C10.625 15.3417 10.3417 15.625 10 15.625Z" fill="white"/>
</svg>
