<svg width="41" height="33" viewBox="0 0 41 33" fill="none" xmlns="http://www.w3.org/2000/svg">
<path d="M35.0363 21.6388L35.0114 12.064L33.4 13.7412V21.6671C33.2433 23.9723 31.7346 25.8686 29.7029 26.6778C29.1343 26.9043 28.5242 27.0458 27.8923 27.0866L10.1936 27.0971L9.42055 27.3854L3.85061 31.1413C2.97486 31.6361 1.94139 30.9998 1.74839 30.0627C1.63944 23.4827 1.66434 16.8724 1.73698 10.2892C1.94346 8.45373 2.98004 6.87085 4.46592 5.95991C5.1881 5.51754 6.01612 5.23242 6.90744 5.15799H27.94C28.4972 5.22717 29.0596 5.3016 29.5753 5.53536L30.8495 4.23656C29.8752 3.81516 28.8655 3.47552 27.7978 3.40948L6.90744 3.40739C3.24256 3.68098 0.151493 6.74297 0.00207524 10.4842L0 30.0763C0.205449 31.96 1.91026 33.2725 3.6545 32.9517C3.9772 32.8919 4.30197 32.7766 4.61845 32.5984C6.35023 31.6235 8.03222 30.1769 9.75674 29.136C9.9072 29.0448 10.0577 28.9484 10.2185 28.8792C10.2237 28.8771 10.2289 28.875 10.233 28.8739C10.3254 28.8352 10.4208 28.8058 10.5225 28.7922L28.1288 28.7869C28.9932 28.7219 29.8264 28.5039 30.5973 28.1611C32.9424 27.1191 34.7115 24.9115 35.0124 22.2541C35.0217 22.1724 35.0311 22.0906 35.0373 22.0078V21.6388H35.0363Z" fill="url(#paint0_linear_18911_40760)"/>
<path d="M8.72742 13.1762V19.4018C8.72742 19.8075 9.0522 20.1356 9.45376 20.1356C9.85531 20.1356 10.1801 19.8075 10.1801 19.4018V13.1762C10.1801 12.7705 9.85531 12.4424 9.45376 12.4424C9.0522 12.4424 8.72742 12.7705 8.72742 13.1762Z" fill="url(#paint1_linear_18911_40760)"/>
<path d="M11.7697 10.8417V21.7363C11.7697 22.142 12.0945 22.4701 12.4961 22.4701C12.8976 22.4701 13.2224 22.142 13.2224 21.7363V10.8417C13.2224 10.436 12.8976 10.1079 12.4961 10.1079C12.0945 10.1079 11.7697 10.436 11.7697 10.8417Z" fill="url(#paint2_linear_18911_40760)"/>
<path d="M18.1625 13.1762V19.4018C18.1625 19.8075 18.4873 20.1356 18.8888 20.1356C19.2904 20.1356 19.6152 19.8075 19.6152 19.4018V13.1762C19.6152 12.7705 19.2904 12.4424 18.8888 12.4424C18.4873 12.4424 18.1625 12.7705 18.1625 13.1762Z" fill="url(#paint3_linear_18911_40760)"/>
<path d="M24.4007 13.5546V19.0244C24.4007 19.4301 24.7254 19.7582 25.127 19.7582C25.5286 19.7582 25.8533 19.4301 25.8533 19.0244V13.5546C25.8533 13.1489 25.5286 12.8208 25.127 12.8208C24.7254 12.8208 24.4007 13.1489 24.4007 13.5546Z" fill="url(#paint4_linear_18911_40760)"/>
<path d="M21.2048 10.8417V21.7363C21.2048 22.142 21.5296 22.4701 21.9311 22.4701C22.3327 22.4701 22.6575 22.142 22.6575 21.7363V10.8417C22.6575 10.436 22.3327 10.1079 21.9311 10.1079C21.5296 10.1079 21.2048 10.436 21.2048 10.8417Z" fill="url(#paint5_linear_18911_40760)"/>
<path d="M14.9666 8.57953V23.9985C14.9666 24.4041 15.2914 24.7322 15.693 24.7322C16.0945 24.7322 16.4193 24.4041 16.4193 23.9985V8.57953C16.4193 8.17385 16.0945 7.84574 15.693 7.84574C15.2914 7.84574 14.9666 8.17385 14.9666 8.57953Z" fill="url(#paint6_linear_18911_40760)"/>
<path d="M6.5204 17.2371C6.96739 17.2371 7.32975 16.8711 7.32975 16.4195C7.32975 15.9679 6.96739 15.6019 6.5204 15.6019C6.07342 15.6019 5.71106 15.9679 5.71106 16.4195C5.71106 16.8711 6.07342 17.2371 6.5204 17.2371Z" fill="url(#paint7_linear_18911_40760)"/>
<path d="M27.7574 17.2371C28.2044 17.2371 28.5667 16.8711 28.5667 16.4195C28.5667 15.9679 28.2044 15.6019 27.7574 15.6019C27.3104 15.6019 26.948 15.9679 26.948 16.4195C26.948 16.8711 27.3104 17.2371 27.7574 17.2371Z" fill="url(#paint8_linear_18911_40760)"/>
<path d="M40.7463 3.52794L37.5079 0.256301C37.1696 -0.0854336 36.6218 -0.0854336 36.2835 0.256301L27.6142 9.01456C27.4907 9.1393 27.4077 9.29864 27.3755 9.4716L26.6253 13.5001C26.5133 14.106 27.0373 14.6364 27.637 14.5221L31.6246 13.7642C31.7958 13.7318 31.9535 13.6468 32.077 13.5231L40.7463 4.76489C41.0846 4.42315 41.0846 3.86967 40.7463 3.52794ZM29.6282 12.8816L28.4661 13.1971C28.1444 13.2841 27.8508 12.9875 27.9369 12.6625L28.2492 11.4885C28.3353 11.1645 28.7358 11.0555 28.9704 11.2935L29.8212 12.1531C30.0557 12.39 29.9488 12.7956 29.6282 12.8816ZM36.8023 6.93794L31.9587 11.8312C31.7657 12.0262 31.4534 12.0252 31.2604 11.8312L29.2764 9.82696C29.0845 9.63303 29.0834 9.3175 29.2764 9.12148L34.1201 4.22818C34.3131 4.0332 34.6254 4.03425 34.8184 4.22818L36.8023 6.23246C36.9943 6.42639 36.9953 6.74192 36.8023 6.93794ZM39.1546 4.56153L38.4791 5.24395C38.2861 5.43892 37.9738 5.43788 37.7808 5.24395L35.7968 3.23966C35.6049 3.04573 35.6039 2.73021 35.7968 2.53418L36.4723 1.85176C36.6653 1.65678 36.9777 1.65783 37.1707 1.85176L39.1546 3.85604C39.3465 4.04997 39.3476 4.3655 39.1546 4.56153Z" fill="url(#paint9_linear_18911_40760)"/>
<defs>
<linearGradient id="paint0_linear_18911_40760" x1="8.95538e-07" y1="35.5719" x2="43.3201" y2="-0.692667" gradientUnits="userSpaceOnUse">
<stop stop-color="#45B5FF"/>
<stop offset="0.495192" stop-color="#4B5DFF"/>
<stop offset="1" stop-color="#481FFF"/>
</linearGradient>
<linearGradient id="paint1_linear_18911_40760" x1="8.95538e-07" y1="35.5719" x2="43.3201" y2="-0.692667" gradientUnits="userSpaceOnUse">
<stop stop-color="#45B5FF"/>
<stop offset="0.495192" stop-color="#4B5DFF"/>
<stop offset="1" stop-color="#481FFF"/>
</linearGradient>
<linearGradient id="paint2_linear_18911_40760" x1="8.95538e-07" y1="35.5719" x2="43.3201" y2="-0.692667" gradientUnits="userSpaceOnUse">
<stop stop-color="#45B5FF"/>
<stop offset="0.495192" stop-color="#4B5DFF"/>
<stop offset="1" stop-color="#481FFF"/>
</linearGradient>
<linearGradient id="paint3_linear_18911_40760" x1="8.95538e-07" y1="35.5719" x2="43.3201" y2="-0.692667" gradientUnits="userSpaceOnUse">
<stop stop-color="#45B5FF"/>
<stop offset="0.495192" stop-color="#4B5DFF"/>
<stop offset="1" stop-color="#481FFF"/>
</linearGradient>
<linearGradient id="paint4_linear_18911_40760" x1="8.95538e-07" y1="35.5719" x2="43.3201" y2="-0.692667" gradientUnits="userSpaceOnUse">
<stop stop-color="#45B5FF"/>
<stop offset="0.495192" stop-color="#4B5DFF"/>
<stop offset="1" stop-color="#481FFF"/>
</linearGradient>
<linearGradient id="paint5_linear_18911_40760" x1="8.95538e-07" y1="35.5719" x2="43.3201" y2="-0.692667" gradientUnits="userSpaceOnUse">
<stop stop-color="#45B5FF"/>
<stop offset="0.495192" stop-color="#4B5DFF"/>
<stop offset="1" stop-color="#481FFF"/>
</linearGradient>
<linearGradient id="paint6_linear_18911_40760" x1="8.95538e-07" y1="35.5719" x2="43.3201" y2="-0.692667" gradientUnits="userSpaceOnUse">
<stop stop-color="#45B5FF"/>
<stop offset="0.495192" stop-color="#4B5DFF"/>
<stop offset="1" stop-color="#481FFF"/>
</linearGradient>
<linearGradient id="paint7_linear_18911_40760" x1="8.95538e-07" y1="35.5719" x2="43.3201" y2="-0.692667" gradientUnits="userSpaceOnUse">
<stop stop-color="#45B5FF"/>
<stop offset="0.495192" stop-color="#4B5DFF"/>
<stop offset="1" stop-color="#481FFF"/>
</linearGradient>
<linearGradient id="paint8_linear_18911_40760" x1="8.95538e-07" y1="35.5719" x2="43.3201" y2="-0.692667" gradientUnits="userSpaceOnUse">
<stop stop-color="#45B5FF"/>
<stop offset="0.495192" stop-color="#4B5DFF"/>
<stop offset="1" stop-color="#481FFF"/>
</linearGradient>
<linearGradient id="paint9_linear_18911_40760" x1="8.95538e-07" y1="35.5719" x2="43.3201" y2="-0.692667" gradientUnits="userSpaceOnUse">
<stop stop-color="#45B5FF"/>
<stop offset="0.495192" stop-color="#4B5DFF"/>
<stop offset="1" stop-color="#481FFF"/>
</linearGradient>
</defs>
</svg>
