<svg width="235" height="33" viewBox="0 0 235 33" fill="none" xmlns="http://www.w3.org/2000/svg">
<path d="M35.0363 21.6388L35.0114 12.064L33.4 13.7412V21.6671C33.2433 23.9723 31.7346 25.8686 29.7029 26.6778C29.1343 26.9043 28.5242 27.0458 27.8923 27.0866L10.1936 27.0971L9.42055 27.3854L3.85061 31.1413C2.97486 31.6361 1.94139 30.9998 1.74839 30.0627C1.63944 23.4827 1.66434 16.8724 1.73698 10.2892C1.94346 8.45373 2.98004 6.87085 4.46592 5.95991C5.1881 5.51754 6.01612 5.23242 6.90744 5.15799H27.94C28.4972 5.22717 29.0596 5.3016 29.5753 5.53536L30.8495 4.23656C29.8752 3.81516 28.8655 3.47552 27.7978 3.40948L6.90744 3.40739C3.24256 3.68098 0.151493 6.74297 0.00207524 10.4842L0 30.0763C0.205449 31.96 1.91026 33.2725 3.6545 32.9517C3.9772 32.8919 4.30197 32.7766 4.61845 32.5984C6.35023 31.6235 8.03222 30.1769 9.75674 29.136C9.9072 29.0448 10.0577 28.9484 10.2185 28.8792C10.2237 28.8771 10.2289 28.875 10.233 28.8739C10.3254 28.8352 10.4208 28.8058 10.5225 28.7922L28.1288 28.7869C28.9932 28.7219 29.8264 28.5039 30.5973 28.1611C32.9424 27.1191 34.7115 24.9115 35.0124 22.2541C35.0217 22.1724 35.0311 22.0906 35.0373 22.0078V21.6388H35.0363Z" fill="url(#paint0_linear_18911_40759)"/>
<path d="M8.72742 13.1762V19.4018C8.72742 19.8075 9.0522 20.1356 9.45376 20.1356C9.85531 20.1356 10.1801 19.8075 10.1801 19.4018V13.1762C10.1801 12.7705 9.85531 12.4424 9.45376 12.4424C9.0522 12.4424 8.72742 12.7705 8.72742 13.1762Z" fill="url(#paint1_linear_18911_40759)"/>
<path d="M11.7697 10.8417V21.7363C11.7697 22.142 12.0945 22.4701 12.4961 22.4701C12.8976 22.4701 13.2224 22.142 13.2224 21.7363V10.8417C13.2224 10.436 12.8976 10.1079 12.4961 10.1079C12.0945 10.1079 11.7697 10.436 11.7697 10.8417Z" fill="url(#paint2_linear_18911_40759)"/>
<path d="M18.1625 13.1762V19.4018C18.1625 19.8075 18.4873 20.1356 18.8888 20.1356C19.2904 20.1356 19.6152 19.8075 19.6152 19.4018V13.1762C19.6152 12.7705 19.2904 12.4424 18.8888 12.4424C18.4873 12.4424 18.1625 12.7705 18.1625 13.1762Z" fill="url(#paint3_linear_18911_40759)"/>
<path d="M24.4007 13.5546V19.0244C24.4007 19.4301 24.7254 19.7582 25.127 19.7582C25.5286 19.7582 25.8533 19.4301 25.8533 19.0244V13.5546C25.8533 13.1489 25.5286 12.8208 25.127 12.8208C24.7254 12.8208 24.4007 13.1489 24.4007 13.5546Z" fill="url(#paint4_linear_18911_40759)"/>
<path d="M21.2048 10.8417V21.7363C21.2048 22.142 21.5296 22.4701 21.9311 22.4701C22.3327 22.4701 22.6575 22.142 22.6575 21.7363V10.8417C22.6575 10.436 22.3327 10.1079 21.9311 10.1079C21.5296 10.1079 21.2048 10.436 21.2048 10.8417Z" fill="url(#paint5_linear_18911_40759)"/>
<path d="M14.9666 8.57953V23.9985C14.9666 24.4041 15.2914 24.7322 15.693 24.7322C16.0945 24.7322 16.4193 24.4041 16.4193 23.9985V8.57953C16.4193 8.17385 16.0945 7.84574 15.693 7.84574C15.2914 7.84574 14.9666 8.17385 14.9666 8.57953Z" fill="url(#paint6_linear_18911_40759)"/>
<path d="M6.5204 17.2371C6.96739 17.2371 7.32975 16.8711 7.32975 16.4195C7.32975 15.9679 6.96739 15.6019 6.5204 15.6019C6.07342 15.6019 5.71106 15.9679 5.71106 16.4195C5.71106 16.8711 6.07342 17.2371 6.5204 17.2371Z" fill="url(#paint7_linear_18911_40759)"/>
<path d="M27.7574 17.2371C28.2044 17.2371 28.5667 16.8711 28.5667 16.4195C28.5667 15.9679 28.2044 15.6019 27.7574 15.6019C27.3104 15.6019 26.948 15.9679 26.948 16.4195C26.948 16.8711 27.3104 17.2371 27.7574 17.2371Z" fill="url(#paint8_linear_18911_40759)"/>
<path d="M40.7463 3.52794L37.5079 0.256301C37.1696 -0.0854336 36.6218 -0.0854336 36.2835 0.256301L27.6142 9.01456C27.4907 9.1393 27.4077 9.29864 27.3755 9.4716L26.6253 13.5001C26.5133 14.106 27.0373 14.6364 27.637 14.5221L31.6246 13.7642C31.7958 13.7318 31.9535 13.6468 32.077 13.5231L40.7463 4.76489C41.0846 4.42315 41.0846 3.86967 40.7463 3.52794ZM29.6282 12.8816L28.4661 13.1971C28.1444 13.2841 27.8508 12.9875 27.9369 12.6625L28.2492 11.4885C28.3353 11.1645 28.7358 11.0555 28.9704 11.2935L29.8212 12.1531C30.0557 12.39 29.9488 12.7956 29.6282 12.8816ZM36.8023 6.93794L31.9587 11.8312C31.7657 12.0262 31.4534 12.0252 31.2604 11.8312L29.2764 9.82696C29.0845 9.63303 29.0834 9.3175 29.2764 9.12148L34.1201 4.22818C34.3131 4.0332 34.6254 4.03425 34.8184 4.22818L36.8023 6.23246C36.9943 6.42639 36.9953 6.74192 36.8023 6.93794ZM39.1546 4.56153L38.4791 5.24395C38.2861 5.43892 37.9738 5.43788 37.7808 5.24395L35.7968 3.23966C35.6049 3.04573 35.6039 2.73021 35.7968 2.53418L36.4723 1.85176C36.6653 1.65678 36.9777 1.65783 37.1707 1.85176L39.1546 3.85604C39.3465 4.04997 39.3476 4.3655 39.1546 4.56153Z" fill="url(#paint9_linear_18911_40759)"/>
<path d="M54.925 26V7.375H57.875V23.375H65.925V26H54.925ZM72.7516 26.3C71.7349 26.3 70.8432 26.075 70.0766 25.625C69.3099 25.1583 68.7099 24.5167 68.2766 23.7C67.8599 22.8667 67.6516 21.9083 67.6516 20.825V12.475H70.4766V20.575C70.4766 21.1917 70.6016 21.7333 70.8516 22.2C71.1016 22.6667 71.4516 23.0333 71.9016 23.3C72.3516 23.55 72.8682 23.675 73.4516 23.675C74.0516 23.675 74.5766 23.5417 75.0266 23.275C75.4766 23.0083 75.8266 22.6333 76.0766 22.15C76.3432 21.6667 76.4766 21.1 76.4766 20.45V12.475H79.2766V26H76.6016V23.35L76.9016 23.7C76.5849 24.5333 76.0599 25.175 75.3266 25.625C74.5932 26.075 73.7349 26.3 72.7516 26.3ZM88.8 26.3C87.45 26.3 86.25 25.9917 85.2 25.375C84.1667 24.7417 83.3417 23.8917 82.725 22.825C82.125 21.7583 81.825 20.55 81.825 19.2C81.825 17.8667 82.125 16.6667 82.725 15.6C83.325 14.5333 84.15 13.7 85.2 13.1C86.25 12.4833 87.45 12.175 88.8 12.175C89.7167 12.175 90.575 12.3417 91.375 12.675C92.175 12.9917 92.8667 13.4333 93.45 14C94.05 14.5667 94.4917 15.225 94.775 15.975L92.3 17.125C92.0167 16.425 91.5583 15.8667 90.925 15.45C90.3083 15.0167 89.6 14.8 88.8 14.8C88.0333 14.8 87.3417 14.9917 86.725 15.375C86.125 15.7417 85.65 16.2667 85.3 16.95C84.95 17.6167 84.775 18.375 84.775 19.225C84.775 20.075 84.95 20.8417 85.3 21.525C85.65 22.1917 86.125 22.7167 86.725 23.1C87.3417 23.4833 88.0333 23.675 88.8 23.675C89.6167 23.675 90.325 23.4667 90.925 23.05C91.5417 22.6167 92 22.0417 92.3 21.325L94.775 22.5C94.5083 23.2167 94.075 23.8667 93.475 24.45C92.8917 25.0167 92.2 25.4667 91.4 25.8C90.6 26.1333 89.7333 26.3 88.8 26.3ZM101.264 26.3C100.347 26.3 99.5391 26.1417 98.8391 25.825C98.1557 25.4917 97.6224 25.0417 97.2391 24.475C96.8557 23.8917 96.6641 23.2083 96.6641 22.425C96.6641 21.6917 96.8224 21.0333 97.1391 20.45C97.4724 19.8667 97.9807 19.375 98.6641 18.975C99.3474 18.575 100.206 18.2917 101.239 18.125L105.939 17.35V19.575L101.789 20.3C101.039 20.4333 100.489 20.675 100.139 21.025C99.7891 21.3583 99.6141 21.7917 99.6141 22.325C99.6141 22.8417 99.8057 23.2667 100.189 23.6C100.589 23.9167 101.097 24.075 101.714 24.075C102.481 24.075 103.147 23.9083 103.714 23.575C104.297 23.2417 104.747 22.8 105.064 22.25C105.381 21.6833 105.539 21.0583 105.539 20.375V16.9C105.539 16.2333 105.289 15.6917 104.789 15.275C104.306 14.8417 103.656 14.625 102.839 14.625C102.089 14.625 101.431 14.825 100.864 15.225C100.314 15.6083 99.9057 16.1083 99.6391 16.725L97.2891 15.55C97.5391 14.8833 97.9474 14.3 98.5141 13.8C99.0807 13.2833 99.7391 12.8833 100.489 12.6C101.256 12.3167 102.064 12.175 102.914 12.175C103.981 12.175 104.922 12.375 105.739 12.775C106.572 13.175 107.214 13.7333 107.664 14.45C108.131 15.15 108.364 15.9667 108.364 16.9V26H105.664V23.55L106.239 23.625C105.922 24.175 105.514 24.65 105.014 25.05C104.531 25.45 103.972 25.7583 103.339 25.975C102.722 26.1917 102.031 26.3 101.264 26.3ZM115.912 26V7.375H118.287L128.737 21.8L127.612 21.975V7.375H130.537V26H128.162L117.787 11.475L118.862 11.275V26H115.912ZM140.444 26.3C139.144 26.3 137.952 25.9917 136.869 25.375C135.802 24.7583 134.952 23.9167 134.319 22.85C133.685 21.7833 133.369 20.575 133.369 19.225C133.369 17.8583 133.685 16.65 134.319 15.6C134.952 14.5333 135.802 13.7 136.869 13.1C137.935 12.4833 139.127 12.175 140.444 12.175C141.777 12.175 142.969 12.4833 144.019 13.1C145.085 13.7 145.927 14.5333 146.544 15.6C147.177 16.65 147.494 17.8583 147.494 19.225C147.494 20.5917 147.177 21.8083 146.544 22.875C145.91 23.9417 145.06 24.7833 143.994 25.4C142.927 26 141.744 26.3 140.444 26.3ZM140.444 23.675C141.244 23.675 141.952 23.4833 142.569 23.1C143.185 22.7167 143.669 22.1917 144.019 21.525C144.385 20.8417 144.569 20.075 144.569 19.225C144.569 18.375 144.385 17.6167 144.019 16.95C143.669 16.2833 143.185 15.7583 142.569 15.375C141.952 14.9917 141.244 14.8 140.444 14.8C139.66 14.8 138.952 14.9917 138.319 15.375C137.702 15.7583 137.21 16.2833 136.844 16.95C136.494 17.6167 136.319 18.375 136.319 19.225C136.319 20.075 136.494 20.8417 136.844 21.525C137.21 22.1917 137.702 22.7167 138.319 23.1C138.952 23.4833 139.66 23.675 140.444 23.675ZM155.658 26.15C154.241 26.15 153.141 25.75 152.358 24.95C151.574 24.15 151.183 23.025 151.183 21.575V15.025H148.808V12.475H149.183C149.816 12.475 150.308 12.2917 150.658 11.925C151.008 11.5583 151.183 11.0583 151.183 10.425V9.375H154.008V12.475H157.083V15.025H154.008V21.45C154.008 21.9167 154.083 22.3167 154.233 22.65C154.383 22.9667 154.624 23.2167 154.958 23.4C155.291 23.5667 155.724 23.65 156.258 23.65C156.391 23.65 156.541 23.6417 156.708 23.625C156.874 23.6083 157.033 23.5917 157.183 23.575V26C156.949 26.0333 156.691 26.0667 156.408 26.1C156.124 26.1333 155.874 26.15 155.658 26.15ZM165.845 26.3C164.495 26.3 163.295 25.9917 162.245 25.375C161.212 24.7417 160.404 23.8917 159.82 22.825C159.237 21.7417 158.945 20.5333 158.945 19.2C158.945 17.8333 159.237 16.625 159.82 15.575C160.42 14.525 161.22 13.7 162.22 13.1C163.22 12.4833 164.354 12.175 165.62 12.175C166.637 12.175 167.545 12.35 168.345 12.7C169.145 13.05 169.82 13.5333 170.37 14.15C170.92 14.75 171.337 15.4417 171.62 16.225C171.92 17.0083 172.07 17.8417 172.07 18.725C172.07 18.9417 172.062 19.1667 172.045 19.4C172.029 19.6333 171.995 19.85 171.945 20.05H161.17V17.8H170.345L168.995 18.825C169.162 18.0083 169.104 17.2833 168.82 16.65C168.554 16 168.137 15.4917 167.57 15.125C167.02 14.7417 166.37 14.55 165.62 14.55C164.87 14.55 164.204 14.7417 163.62 15.125C163.037 15.4917 162.587 16.025 162.27 16.725C161.954 17.4083 161.829 18.2417 161.895 19.225C161.812 20.1417 161.937 20.9417 162.27 21.625C162.62 22.3083 163.104 22.8417 163.72 23.225C164.354 23.6083 165.07 23.8 165.87 23.8C166.687 23.8 167.379 23.6167 167.945 23.25C168.529 22.8833 168.987 22.4083 169.32 21.825L171.62 22.95C171.354 23.5833 170.937 24.1583 170.37 24.675C169.82 25.175 169.154 25.575 168.37 25.875C167.604 26.1583 166.762 26.3 165.845 26.3ZM180.477 26.15C179.061 26.15 177.961 25.75 177.177 24.95C176.394 24.15 176.002 23.025 176.002 21.575V15.025H173.627V12.475H174.002C174.636 12.475 175.127 12.2917 175.477 11.925C175.827 11.5583 176.002 11.0583 176.002 10.425V9.375H178.827V12.475H181.902V15.025H178.827V21.45C178.827 21.9167 178.902 22.3167 179.052 22.65C179.202 22.9667 179.444 23.2167 179.777 23.4C180.111 23.5667 180.544 23.65 181.077 23.65C181.211 23.65 181.361 23.6417 181.527 23.625C181.694 23.6083 181.852 23.5917 182.002 23.575V26C181.769 26.0333 181.511 26.0667 181.227 26.1C180.944 26.1333 180.694 26.15 180.477 26.15ZM188.487 26.3C187.57 26.3 186.762 26.1417 186.062 25.825C185.379 25.4917 184.845 25.0417 184.462 24.475C184.079 23.8917 183.887 23.2083 183.887 22.425C183.887 21.6917 184.045 21.0333 184.362 20.45C184.695 19.8667 185.204 19.375 185.887 18.975C186.57 18.575 187.429 18.2917 188.462 18.125L193.162 17.35V19.575L189.012 20.3C188.262 20.4333 187.712 20.675 187.362 21.025C187.012 21.3583 186.837 21.7917 186.837 22.325C186.837 22.8417 187.029 23.2667 187.412 23.6C187.812 23.9167 188.32 24.075 188.937 24.075C189.704 24.075 190.37 23.9083 190.937 23.575C191.52 23.2417 191.97 22.8 192.287 22.25C192.604 21.6833 192.762 21.0583 192.762 20.375V16.9C192.762 16.2333 192.512 15.6917 192.012 15.275C191.529 14.8417 190.879 14.625 190.062 14.625C189.312 14.625 188.654 14.825 188.087 15.225C187.537 15.6083 187.129 16.1083 186.862 16.725L184.512 15.55C184.762 14.8833 185.17 14.3 185.737 13.8C186.304 13.2833 186.962 12.8833 187.712 12.6C188.479 12.3167 189.287 12.175 190.137 12.175C191.204 12.175 192.145 12.375 192.962 12.775C193.795 13.175 194.437 13.7333 194.887 14.45C195.354 15.15 195.587 15.9667 195.587 16.9V26H192.887V23.55L193.462 23.625C193.145 24.175 192.737 24.65 192.237 25.05C191.754 25.45 191.195 25.7583 190.562 25.975C189.945 26.1917 189.254 26.3 188.487 26.3ZM198.69 26V7.075H201.515V19.75L200.415 19.475L207.19 12.475H210.715L205.615 17.9L210.94 26H207.69L202.94 18.825L204.615 18.6L200.615 22.85L201.515 20.975V26H198.69ZM218.781 26.3C217.431 26.3 216.231 25.9917 215.181 25.375C214.147 24.7417 213.339 23.8917 212.756 22.825C212.172 21.7417 211.881 20.5333 211.881 19.2C211.881 17.8333 212.172 16.625 212.756 15.575C213.356 14.525 214.156 13.7 215.156 13.1C216.156 12.4833 217.289 12.175 218.556 12.175C219.572 12.175 220.481 12.35 221.281 12.7C222.081 13.05 222.756 13.5333 223.306 14.15C223.856 14.75 224.272 15.4417 224.556 16.225C224.856 17.0083 225.006 17.8417 225.006 18.725C225.006 18.9417 224.997 19.1667 224.981 19.4C224.964 19.6333 224.931 19.85 224.881 20.05H214.106V17.8H223.281L221.931 18.825C222.097 18.0083 222.039 17.2833 221.756 16.65C221.489 16 221.072 15.4917 220.506 15.125C219.956 14.7417 219.306 14.55 218.556 14.55C217.806 14.55 217.139 14.7417 216.556 15.125C215.972 15.4917 215.522 16.025 215.206 16.725C214.889 17.4083 214.764 18.2417 214.831 19.225C214.747 20.1417 214.872 20.9417 215.206 21.625C215.556 22.3083 216.039 22.8417 216.656 23.225C217.289 23.6083 218.006 23.8 218.806 23.8C219.622 23.8 220.314 23.6167 220.881 23.25C221.464 22.8833 221.922 22.4083 222.256 21.825L224.556 22.95C224.289 23.5833 223.872 24.1583 223.306 24.675C222.756 25.175 222.089 25.575 221.306 25.875C220.539 26.1583 219.697 26.3 218.781 26.3ZM227.563 26V12.475H230.263V15.2L230.013 14.8C230.313 13.9167 230.796 13.2833 231.463 12.9C232.129 12.5 232.929 12.3 233.863 12.3H234.688V14.875H233.513C232.579 14.875 231.821 15.1667 231.238 15.75C230.671 16.3167 230.388 17.1333 230.388 18.2V26H227.563Z" fill="url(#paint10_linear_18911_40759)"/>
<defs>
<linearGradient id="paint0_linear_18911_40759" x1="8.95538e-07" y1="35.5719" x2="43.3201" y2="-0.692667" gradientUnits="userSpaceOnUse">
<stop stop-color="#45B5FF"/>
<stop offset="0.495192" stop-color="#4B5DFF"/>
<stop offset="1" stop-color="#481FFF"/>
</linearGradient>
<linearGradient id="paint1_linear_18911_40759" x1="8.95538e-07" y1="35.5719" x2="43.3201" y2="-0.692667" gradientUnits="userSpaceOnUse">
<stop stop-color="#45B5FF"/>
<stop offset="0.495192" stop-color="#4B5DFF"/>
<stop offset="1" stop-color="#481FFF"/>
</linearGradient>
<linearGradient id="paint2_linear_18911_40759" x1="8.95538e-07" y1="35.5719" x2="43.3201" y2="-0.692667" gradientUnits="userSpaceOnUse">
<stop stop-color="#45B5FF"/>
<stop offset="0.495192" stop-color="#4B5DFF"/>
<stop offset="1" stop-color="#481FFF"/>
</linearGradient>
<linearGradient id="paint3_linear_18911_40759" x1="8.95538e-07" y1="35.5719" x2="43.3201" y2="-0.692667" gradientUnits="userSpaceOnUse">
<stop stop-color="#45B5FF"/>
<stop offset="0.495192" stop-color="#4B5DFF"/>
<stop offset="1" stop-color="#481FFF"/>
</linearGradient>
<linearGradient id="paint4_linear_18911_40759" x1="8.95538e-07" y1="35.5719" x2="43.3201" y2="-0.692667" gradientUnits="userSpaceOnUse">
<stop stop-color="#45B5FF"/>
<stop offset="0.495192" stop-color="#4B5DFF"/>
<stop offset="1" stop-color="#481FFF"/>
</linearGradient>
<linearGradient id="paint5_linear_18911_40759" x1="8.95538e-07" y1="35.5719" x2="43.3201" y2="-0.692667" gradientUnits="userSpaceOnUse">
<stop stop-color="#45B5FF"/>
<stop offset="0.495192" stop-color="#4B5DFF"/>
<stop offset="1" stop-color="#481FFF"/>
</linearGradient>
<linearGradient id="paint6_linear_18911_40759" x1="8.95538e-07" y1="35.5719" x2="43.3201" y2="-0.692667" gradientUnits="userSpaceOnUse">
<stop stop-color="#45B5FF"/>
<stop offset="0.495192" stop-color="#4B5DFF"/>
<stop offset="1" stop-color="#481FFF"/>
</linearGradient>
<linearGradient id="paint7_linear_18911_40759" x1="8.95538e-07" y1="35.5719" x2="43.3201" y2="-0.692667" gradientUnits="userSpaceOnUse">
<stop stop-color="#45B5FF"/>
<stop offset="0.495192" stop-color="#4B5DFF"/>
<stop offset="1" stop-color="#481FFF"/>
</linearGradient>
<linearGradient id="paint8_linear_18911_40759" x1="8.95538e-07" y1="35.5719" x2="43.3201" y2="-0.692667" gradientUnits="userSpaceOnUse">
<stop stop-color="#45B5FF"/>
<stop offset="0.495192" stop-color="#4B5DFF"/>
<stop offset="1" stop-color="#481FFF"/>
</linearGradient>
<linearGradient id="paint9_linear_18911_40759" x1="8.95538e-07" y1="35.5719" x2="43.3201" y2="-0.692667" gradientUnits="userSpaceOnUse">
<stop stop-color="#45B5FF"/>
<stop offset="0.495192" stop-color="#4B5DFF"/>
<stop offset="1" stop-color="#481FFF"/>
</linearGradient>
<linearGradient id="paint10_linear_18911_40759" x1="57.1098" y1="-10.9159" x2="101.606" y2="89.669" gradientUnits="userSpaceOnUse">
<stop stop-color="#263BC7"/>
<stop offset="0.16" stop-color="#483FC5"/>
<stop offset="0.49" stop-color="#864CEF"/>
<stop offset="0.75" stop-color="#327FFF"/>
<stop offset="0.99" stop-color="#005B97"/>
</linearGradient>
</defs>
</svg>
